<svg xmlns="http://www.w3.org/2000/svg" fill="none" viewBox="0 0 48 48" id="Person--Streamline-Outlined-Material">
  <desc>
    Person Streamline Icon: https://streamlinehq.com
  </desc>
  <path fill="#000000" d="M24 23.9502c-2.2 0 -4 -0.7 -5.4 -2.1 -1.4 -1.4 -2.1 -3.2 -2.1 -5.4s0.7 -4 2.1 -5.4c1.4 -1.4 3.2 -2.1 5.4 -2.1s4 0.7 5.4 2.1c1.4 1.4 2.1 3.2 2.1 5.4s-0.7 4 -2.1 5.4c-1.4 1.4 -3.2 2.1 -5.4 2.1Zm-16 16.05v-4.7c0 -1.2667 0.31667 -2.35 0.95 -3.25 0.63333 -0.9 1.45 -1.5833 2.45 -2.05 2.2333 -1 4.375 -1.75 6.425 -2.25s4.1083 -0.75 6.175 -0.75 4.1167 0.2583 6.15 0.775c2.0333 0.5167 4.1653 1.2615 6.396 2.2345 1.0433 0.471 1.8798 1.1538 2.5095 2.0485 0.6297 0.8947 0.9445 1.9753 0.9445 3.242v4.7H8Zm3 -3h26v-1.7c0 -0.5333 -0.1583 -1.0417 -0.475 -1.525 -0.3167 -0.4833 -0.7083 -0.8417 -1.175 -1.075 -2.1333 -1.0333 -4.0833 -1.7417 -5.85 -2.125 -1.7667 -0.3833 -3.6 -0.575 -5.5 -0.575s-3.75 0.1917 -5.55 0.575c-1.8 0.3833 -3.75 1.0917 -5.85 2.125 -0.4667 0.2333 -0.85 0.5917 -1.15 1.075 -0.3 0.4833 -0.45 0.9917 -0.45 1.525v1.7Zm13 -16.05c1.3 0 2.375 -0.425 3.225 -1.275 0.85 -0.85 1.275 -1.925 1.275 -3.225s-0.425 -2.375 -1.275 -3.225c-0.85 -0.85 -1.925 -1.275 -3.225 -1.275s-2.375 0.425 -3.225 1.275c-0.85 0.85 -1.275 1.925 -1.275 3.225s0.425 2.375 1.275 3.225c0.85 0.85 1.925 1.275 3.225 1.275Z" stroke-width="1"></path>
</svg>